<svg width="7068" height="4995" viewBox="0 0 7068 4995" fill="none" xmlns="http://www.w3.org/2000/svg">
<path d="M5966.5 1150.5C6135.27 588.89 7068 0 7068 0H0V4991.5H5098.5C5098.5 4991.5 4484.5 4690 4718.5 4309.5C4912.97 3993.28 5291.49 4378 5566.5 3978C5775.42 3674.12 6044.5 4085 6385.5 3666C6645.13 3346.98 6604.69 2572.53 6551.5 2213.5C6473.5 1687 5820 1638 5966.5 1150.5Z" fill="#6DC058" fill-opacity="0.05"/>
<path d="M4708.5 1082.5C5002.79 575.267 6093 0 6093 0H0V4991.5H3441.5C3441.5 4991.5 3656 4992 3890 4611.5C4084.47 4295.28 3679.68 4293.41 3890 3987.5C4098.92 3683.62 4625.79 4010.81 4923 3792.5C5254.5 3549 5649.19 3167.03 5596 2808C5518 2281.5 4448 1531.5 4708.5 1082.5Z" fill="#6DC058" fill-opacity="0.05"/>
<path d="M3955.5 965C4249.79 457.767 5106 0 5106 0H0V4991.5H2815C2815 4991.5 3149 5050.5 3383 4670C3577.47 4353.78 3075.18 4244.91 3285.5 3939C3494.42 3635.12 3777.79 3659.81 4075 3441.5C4406.5 3198 4693.69 2757.53 4640.5 2398.5C4562.5 1872 3695 1414 3955.5 965Z" fill="#6DC058" fill-opacity="0.05"/>
<path d="M3402.5 1063C3504.17 485.459 4163 0 4163 0H0V4992H2086.5C2086.5 4992 2448.03 4890.27 2534.5 4455.5C2606.91 4091.4 2070.68 3874.41 2281 3568.5C2489.92 3264.62 3022.8 3641.81 3285.5 3383C3544.05 3128.27 3707.69 2769.03 3654.5 2410C3576.5 1883.5 3314.43 1563.31 3402.5 1063Z" fill="#6DC058" fill-opacity="0.05"/>
<path d="M2466.5 965.5C2568.17 387.959 3617 0.5 3617 0.5H0V4992H1326C1326 4992 1941.53 4617.27 2028 4182.5C2100.41 3818.4 1651.68 3552.41 1862 3246.5C2070.92 2942.62 2525.3 3320.31 2788 3061.5C3046.55 2806.77 3065.69 2611.53 3012.5 2252.5C2934.5 1726 2378.43 1465.81 2466.5 965.5Z" fill="#6DC058" fill-opacity="0.05"/>
</svg>
