<svg width="1570" height="1375" viewBox="0 0 1570 1375" fill="none" xmlns="http://www.w3.org/2000/svg">
<path d="M1397.28 186.887C1211.24 65.3502 1006.91 132.54 786.294 206.727C598.732 269.799 566.324 400.509 385.618 475.622C265.147 525.697 152.87 488.416 57.6161 566.472C-152.957 739.027 264.215 923.354 496.881 1076.07C695.03 1206.12 912.622 1453.78 1086.64 1302.67C1227.21 1180.61 927.05 1027.11 1020.4 878.181C1117.14 723.831 1403.51 826.216 1505.32 674.03C1618.97 504.168 1582.78 308.071 1397.28 186.887Z" fill="#225714" fill-opacity="0.5"/>
<path d="M95.5501 676.742C153.36 407.959 299.697 263.637 524.937 171.823C826.21 49.0157 988.147 143.218 1090.76 467.856C1163.02 696.432 1574.08 801.847 1494.93 1027.33C1384.9 1340.76 1024.94 890.119 748.516 998.055C538.827 1079.93 491.853 1435.96 279 1365.93C45.4515 1289.1 36.7665 950.052 95.5501 676.742Z" fill="#1B2E16" fill-opacity="0.5"/>
<path d="M1322.88 189.369C1223.59 11.6062 1061.41 9.04403 1083.81 134.846C1111.84 292.253 1229.51 478.32 1337.5 388.9C1392.04 343.744 1357.4 251.184 1322.88 189.369Z" fill="#1C261A" fill-opacity="0.5"/>
<path d="M702.467 975.474C716.06 966.38 681.477 917.798 666.68 898.203C664.154 894.857 666.557 890 670.75 890H773.493C775.17 890 776.705 890.795 777.615 892.204C787.37 907.307 842.786 995.306 818.3 1008.29C791.5 1022.5 772.5 1036.5 755 1038.5C741.697 1040.02 645.759 1026.23 600.508 1019.52C595.153 1018.73 594.724 1011.14 599.935 1009.67C632.721 1000.46 690.375 983.563 702.467 975.474Z" fill="#3E7C2F"/>
<path d="M251 465.805C248.759 444.622 263.511 425.399 284.553 422.084L1163.11 283.676C1189.21 279.563 1212.06 301.443 1209.08 327.699L1140.34 933.305C1137.91 954.641 1119.08 970.258 1097.66 968.686L331.333 912.446C312.036 911.03 296.519 896.004 294.483 876.762L251 465.805Z" fill="#525252"/>
<path d="M375.926 1008.06C376.308 1008.02 376.692 1008.02 377.073 1008.07L944.938 1075.23C950.71 1075.92 950.869 1084.24 945.127 1085.14L752.734 1115.38C752.247 1115.46 751.752 1115.47 751.264 1115.4L198.212 1037.99C192.391 1037.17 192.504 1028.73 198.345 1028.07L375.926 1008.06Z" fill="#6DC058"/>
<path fill-rule="evenodd" clip-rule="evenodd" d="M250.994 465.749L1209.31 324.527C1210.2 299.71 1188.15 279.73 1163.11 283.675L284.553 422.084C263.53 425.396 248.785 444.588 250.994 465.749Z" fill="#1E1E1E"/>
<path fill-rule="evenodd" clip-rule="evenodd" d="M428.7 399.375L284.553 422.084C263.511 425.399 248.759 444.622 251 465.805L294.483 876.762C296.519 896.004 312.036 911.03 331.334 912.446L468.791 922.534L428.7 399.375Z" fill="#2B2B2B"/>
<path d="M469.66 480.384C469.292 475.125 473.065 470.425 478.289 469.717L720.989 436.856C726.501 436.109 731.563 440.005 732.253 445.525L732.753 449.521C733.44 455.023 729.52 460.034 724.014 460.691L480.824 489.683C475.149 490.36 470.058 486.085 469.66 480.384V480.384Z" fill="#D5F1CE"/>
<path d="M535.382 517.649C534.923 512.269 538.818 507.496 544.181 506.867L694.333 489.259C699.709 488.629 704.611 492.391 705.393 497.748L705.992 501.858C706.81 507.467 702.807 512.633 697.172 513.243L546.659 529.526C541.08 530.13 536.097 526.026 535.62 520.435L535.382 517.649Z" fill="#D5F1CE"/>
<path d="M540.324 563.646C539.878 558.194 543.894 553.395 549.339 552.875L819.969 527C825.45 526.476 830.323 530.481 830.871 535.959L831.373 540.979C831.928 546.522 827.846 551.45 822.296 551.936L551.4 575.675C545.876 576.159 541.013 572.056 540.56 566.529L540.324 563.646Z" fill="#D5F1CE"/>
<path d="M479.371 614.025C478.891 608.498 483 603.637 488.53 603.191L703.995 585.807C709.515 585.362 714.345 589.487 714.77 595.008L715.226 600.94C715.652 606.482 711.478 611.307 705.933 611.684L490.29 626.335C484.853 626.704 480.122 622.653 479.65 617.224L479.371 614.025Z" fill="#D5F1CE"/>
<path d="M543.912 656.045C543.413 650.428 547.655 645.509 553.286 645.177L686.651 637.332C691.91 637.023 696.507 640.847 697.161 646.075L697.661 650.078C698.384 655.854 694.039 661.024 688.225 661.307L554.596 667.815C549.235 668.076 544.624 664.058 544.149 658.712L543.912 656.045Z" fill="#D5F1CE"/>
<path d="M486.166 704.209C485.801 698.609 490.115 693.805 495.722 693.567L794.64 680.917C800.107 680.686 804.744 684.891 805.048 690.353L805.431 697.255C805.743 702.87 801.365 707.638 795.744 707.805L496.649 716.713C491.266 716.873 486.723 712.742 486.372 707.368L486.166 704.209Z" fill="#D5F1CE"/>
<path d="M489.357 749.32C489.059 743.676 493.493 738.907 499.143 738.794L729.301 734.203C734.9 734.092 739.5 738.601 739.5 744.201L739.5 748.139C739.5 753.608 735.108 758.062 729.64 758.138L499.619 761.365C494.247 761.441 489.776 757.258 489.493 751.894L489.357 749.32Z" fill="#D5F1CE"/>
<path d="M556.968 795.185C556.448 789.336 561.056 784.3 566.928 784.3L751.916 784.3C757.274 784.3 761.68 788.522 761.907 793.875L762.054 797.324C762.297 803.027 757.723 807.777 752.014 807.749L567.106 806.844C561.945 806.819 557.651 802.871 557.194 797.73L556.968 795.185Z" fill="#D5F1CE"/>
<path d="M619.227 844.816C618.576 838.825 623.332 833.624 629.356 833.737L874.737 838.34C880.185 838.442 884.549 842.888 884.549 848.338L884.549 854.216C884.549 859.858 879.885 864.383 874.246 864.212L629.198 856.788C624.211 856.636 620.098 852.833 619.559 847.873L619.227 844.816Z" fill="#D5F1CE"/>
<path d="M503.767 886.15C503.358 880.203 508.21 875.221 514.166 875.473L670.449 882.094C675.803 882.321 680.026 886.727 680.026 892.085L680.026 894.561C680.026 900.253 675.283 904.796 669.597 904.552L513.478 897.847C508.391 897.628 504.28 893.622 503.931 888.542L503.767 886.15Z" fill="#D5F1CE"/>
<path d="M571.114 932.704C571.114 928.062 575.036 924.385 579.668 924.685L809.387 939.547C814.467 939.876 818.42 944.092 818.42 949.183V949.183C818.42 954.816 813.619 959.253 808.004 958.81L578.518 940.715C574.338 940.386 571.113 936.897 571.114 932.704V932.704Z" fill="#D5F1CE"/>
<path fill-rule="evenodd" clip-rule="evenodd" d="M278.861 408.455C252.595 412.684 234.24 436.74 237.098 463.19L282.044 879.25C284.628 903.169 303.879 921.856 327.865 923.728L1103.2 984.231C1130.12 986.331 1153.84 966.68 1156.79 939.841L1224.83 320.258C1228.44 287.429 1199.79 260.186 1167.18 265.435L278.861 408.455ZM284.553 422.084C263.511 425.399 248.759 444.622 251 465.805L294.483 876.763C296.519 896.004 312.036 911.03 331.333 912.446L1097.66 968.687C1119.08 970.258 1137.91 954.641 1140.34 933.305L1209.07 327.699C1212.06 301.443 1189.21 279.563 1163.11 283.676L284.553 422.084Z" fill="#6DC058"/>
<path d="M1191.78 1182.75C1146.54 1075.4 1209.5 945.344 1321.78 914.252C1456.32 876.994 1457.49 989.106 1403.28 1117.75C1347.77 1249.47 1247.28 1314.47 1191.78 1182.75Z" fill="#30711F" fill-opacity="0.5"/>
</svg>
