<svg id="epUQ8PYkCFW1" xmlns="http://www.w3.org/2000/svg" xmlns:xlink="http://www.w3.org/1999/xlink" viewBox="0 0 475 300" shape-rendering="geometricPrecision" text-rendering="geometricPrecision"><path d="M0,150C0,67.15729,67.15729,0,150,0c27.32154,0,52.937,7.30457,75,20.06733v63.78706C206.67639,63.09387,179.86731,50,150,50C94.77153,50,50,94.77153,50,150s44.77153,100,100,100c29.86731,0,56.67639-13.09387,75-33.85439v63.78706C202.937,292.69543,177.32154,300,150,300C67.15729,300,0,232.84271,0,150Z" stroke-width="0"/><path d="M75,150c0-41.42136,33.57864-75,75-75s75,33.57864,75,75-33.57864,75-75,75-75-33.57864-75-75Zm75,25c13.80712,0,25-11.19288,25-25s-11.19288-25-25-25-25,11.19288-25,25s11.19288,25,25,25Z" stroke-width="0"/><path d="M250,0h50v250h175v50h-225v-300Z" stroke-width="0"/><path d="M375,175h100v50h-150v-225h150v50h-100v37.5h50v50h-50v37.5Z" stroke-width="0"/></svg>
