<svg viewBox="0 0 1500 1631" fill="none" xmlns="http://www.w3.org/2000/svg">
<circle cx="750" cy="881" r="750" fill="#1A7A00" fill-opacity="0.5"/>
<path d="M316 541C316 524.431 329.431 511 346 511H416V661H346C329.431 661 316 647.569 316 631V541Z" fill="#E2BB80"/>
<path d="M1183 541C1183 524.431 1169.57 511 1153 511H1083V661H1153C1169.57 661 1183 647.569 1183 631V541Z" fill="#E2BB80"/>
<path d="M353.01 504.868C340.512 277.347 521.635 86 749.5 86V86C977.365 86 1158.49 277.347 1145.99 504.868L1134.06 721.983C1122.85 926.176 954 1086 749.5 1086V1086C545 1086 376.155 926.176 364.937 721.983L353.01 504.868Z" fill="#E2BB80"/>
<path fill-rule="evenodd" clip-rule="evenodd" d="M250 1440.03L250 1431C250 1265.31 384.315 1131 550 1131H950C1115.69 1131 1250 1265.31 1250 1431V1440.03C1117.31 1558.79 942.089 1631 750 1631C557.911 1631 382.689 1558.79 250 1440.03Z" fill="#13142E"/>
<path d="M575 1068C575 971.35 653.35 893 750 893V893C846.65 893 925 971.35 925 1068V1193H575V1068Z" fill="#3C0C0C"/>
<path d="M600 900H900V1150C900 1232.84 832.843 1300 750 1300V1300C667.157 1300 600 1232.84 600 1150V900Z" fill="#E2BB80"/>
<path fill-rule="evenodd" clip-rule="evenodd" d="M900 1078.46C853.697 1098.14 802.81 1109 749.5 1109C696.574 1109 646.035 1098.29 600 1078.89L600 923H900V1078.46Z" fill="black" fill-opacity="0.3"/>
<path fill-rule="evenodd" clip-rule="evenodd" d="M454.14 706C405.718 640.531 432.035 499 432.035 499C432.035 499 476.282 449.83 498.351 414C520.23 378.478 544.069 317.5 544.069 317.5C544.069 317.5 601.44 332.993 639.021 338.5C682.004 344.799 749.547 345 749.547 345C749.547 345 817.091 344.799 860.073 338.5C897.654 332.993 955.026 317.5 955.026 317.5C955.026 317.5 978.864 378.478 1000.74 414C1022.81 449.83 1067.06 499 1067.06 499C1067.06 499 1093.38 640.531 1044.95 706C1002.3 763.671 936.437 794.5 918.853 793.5C910.519 793.026 905.834 784.666 900.359 774.895C894.281 764.051 887.23 751.468 873.136 746C843.495 734.5 749.547 735 749.547 735C749.547 735 655.6 734.5 625.959 746C611.864 751.468 604.813 764.051 598.736 774.895C593.26 784.666 588.575 793.026 580.241 793.5C562.657 794.5 496.796 763.671 454.14 706ZM749.547 86C521.415 86 340.084 277.579 352.612 505.366L364.502 721.551C375.747 925.989 544.8 1086 749.547 1086C954.295 1086 1123.35 925.99 1134.59 721.551L1146.48 505.366C1159.01 277.579 977.679 86 749.547 86Z" fill="#423522"/>
<path d="M726.463 254L371.963 374C371.963 374 358.546 282.219 371.963 226C383.402 178.073 424.963 111.5 424.963 111.5L461.213 133.75L497.463 156C497.463 156 563.719 83.4246 617.463 53C684.5 15.0509 807.463 0 807.463 0L779.463 40.5L751.463 81C751.463 81 819.634 57.8352 892.5 53C960.237 48.5051 1060.5 74 1060.5 74L965 131C965 131 1031.82 137.162 1083.5 156C1135.52 174.961 1183.5 209.5 1183.5 209.5L1098.5 232.5C1098.5 232.5 1135.57 247.473 1164 296C1191.88 343.575 1203 399.5 1203 399.5L1098.5 368L977.5 254H726.463Z" fill="#423522"/>
<path d="M638 817.5C638 808.387 645.387 801 654.5 801H844.5C853.613 801 861 808.387 861 817.5V817.5C861 863.063 824.063 900 778.5 900H720.5C674.937 900 638 863.063 638 817.5V817.5Z" fill="black"/>
<path d="M967 556.103C967 583.773 937.003 538.066 900 538.066C862.997 538.066 833 583.773 833 556.103C833 528.432 862.997 506 900 506C937.003 506 967 528.432 967 556.103Z" fill="#263016"/>
<path d="M667 556.103C667 583.773 637.003 538.066 600 538.066C562.997 538.066 533 583.773 533 556.103C533 528.432 562.997 506 600 506C637.003 506 667 528.432 667 556.103Z" fill="#263016"/>
<path d="M666 801H834V821C834 826.523 829.523 831 824 831H676C670.477 831 666 826.523 666 821V801Z" fill="white"/>
<path fill-rule="evenodd" clip-rule="evenodd" d="M451.778 481.832C450.094 482.129 450 484.122 450 485.832V506.276C450 507.528 450.736 508.249 451.778 508.943C452.36 509.331 452.916 509.698 453.449 510.05C457.805 512.927 460.679 514.824 464.222 519.165C468.64 524.577 472.222 535.165 472.222 535.165C472.222 535.165 475.769 563.799 481.111 581.387C481.339 582.138 481.561 582.87 481.778 583.586C485.377 595.472 487.636 602.928 494 614.276C499.774 624.571 503.238 630.572 511.778 638.721C521.535 648.03 528.732 651.593 541.111 656.943C551.244 661.322 557.355 663.006 568.222 664.943C578.218 666.724 584.56 666.721 593.737 666.717C595.09 666.716 596.504 666.716 598 666.721C600.262 666.728 602.35 666.758 604.324 666.787C613.124 666.913 619.689 667.008 629.556 664.943C641.705 662.401 648.481 659.856 659.333 653.832C670.261 647.766 675.82 643.105 684.667 634.276C692.092 626.866 695.926 622.239 701.556 613.387C708.894 601.847 711.737 594.452 715.778 581.387C719.077 570.721 720.819 564.528 721.556 553.387C721.631 552.254 721.719 551.221 721.803 550.246C722.115 546.603 722.357 543.778 721.556 539.609C721.132 537.405 720.001 535.746 718.922 534.163C717.492 532.063 716.152 530.097 716.667 527.165C717.4 522.992 720.222 519.165 722.889 518.276C732.982 514.912 750 515.609 750 515.609V495.165H725.556C722.898 495.165 720.17 495.73 717.569 496.269C713.644 497.082 710.006 497.835 707.333 496.498C701.527 493.595 697.306 490.618 693.14 487.68C688.558 484.449 684.042 481.264 677.556 478.276C667.534 473.66 661.584 471.654 650.889 468.943C638.647 465.839 630.766 465.271 619.401 464.451C617.688 464.328 615.897 464.198 614 464.054C594.271 462.552 583.077 462.749 563.333 464.054C543.591 465.359 532.577 467.178 513.111 470.721C507.884 471.672 503.803 472.61 499.759 473.539C495.435 474.534 491.152 475.518 485.556 476.498C481.506 477.208 478.51 477.641 475.298 478.105C473.16 478.414 470.926 478.737 468.222 479.165C466.461 479.444 464.997 479.67 463.644 479.878C460.063 480.431 457.262 480.864 451.778 481.832ZM504.891 514.116C513.552 500.207 523.815 493.787 538.31 488.75C552.805 483.713 577.234 481.054 602.33 482.308C602.33 482.308 638.567 482.98 658.7 492.776C659.784 493.304 660.828 493.805 661.835 494.288C670.302 498.348 676.25 501.201 682.858 508.882C689.922 517.092 692.522 521.766 694.937 533.846C697.353 545.925 696.402 576.292 684.066 599.074C673.637 618.335 654.673 634.2 645.413 638.935C625.157 649.291 610.503 649.729 587.835 647.793C563.754 645.736 547.526 643.305 529.452 627.258C515.879 615.207 511.558 604.682 504.891 587.8C498.921 572.682 495.63 559.212 496.033 547.133C496.478 533.791 497.835 525.449 504.891 514.116Z" fill="#040C00"/>
<path fill-rule="evenodd" clip-rule="evenodd" d="M1048.22 481.832C1049.91 482.129 1050 484.122 1050 485.832V506.276C1050 507.528 1049.26 508.249 1048.22 508.943C1047.64 509.331 1047.08 509.698 1046.55 510.05C1042.19 512.927 1039.32 514.824 1035.78 519.165C1031.36 524.577 1027.78 535.165 1027.78 535.165C1027.78 535.165 1024.23 563.799 1018.89 581.387C1018.66 582.138 1018.44 582.87 1018.22 583.586C1014.62 595.472 1012.36 602.928 1006 614.276C1000.23 624.571 996.762 630.572 988.222 638.721C978.465 648.03 971.268 651.593 958.889 656.943C948.756 661.322 942.645 663.006 931.778 664.943C921.782 666.724 915.44 666.721 906.263 666.717C904.91 666.716 903.496 666.716 902 666.721C899.738 666.728 897.65 666.758 895.676 666.787C886.876 666.913 880.311 667.008 870.444 664.943C858.295 662.401 851.519 659.856 840.667 653.832C829.739 647.766 824.18 643.105 815.333 634.276C807.908 626.866 804.074 622.239 798.444 613.387C791.106 601.847 788.263 594.452 784.222 581.387C780.923 570.721 779.181 564.528 778.444 553.387C778.369 552.254 778.281 551.221 778.197 550.246C777.885 546.603 777.643 543.778 778.444 539.609C778.868 537.405 779.999 535.746 781.078 534.163C782.508 532.063 783.848 530.097 783.333 527.165C782.6 522.992 779.778 519.165 777.111 518.276C767.018 514.912 750 515.609 750 515.609V495.165H774.444C777.102 495.165 779.83 495.73 782.431 496.269C786.356 497.082 789.994 497.835 792.667 496.498C798.473 493.595 802.694 490.618 806.86 487.68C811.442 484.449 815.958 481.264 822.444 478.276C832.466 473.66 838.416 471.654 849.111 468.943C861.353 465.839 869.234 465.271 880.599 464.451C882.312 464.328 884.103 464.198 886 464.054C905.729 462.552 916.923 462.749 936.667 464.054C956.409 465.359 967.423 467.178 986.889 470.721C992.116 471.672 996.197 472.61 1000.24 473.539C1004.57 474.534 1008.85 475.518 1014.44 476.498C1018.49 477.208 1021.49 477.641 1024.7 478.105C1026.84 478.414 1029.07 478.737 1031.78 479.165C1033.54 479.444 1035 479.67 1036.36 479.878C1039.94 480.431 1042.74 480.864 1048.22 481.832ZM995.109 514.116C986.448 500.207 976.185 493.787 961.69 488.75C947.195 483.713 922.766 481.054 897.67 482.308C897.67 482.308 861.433 482.98 841.3 492.776C840.216 493.304 839.172 493.805 838.165 494.288C829.698 498.348 823.75 501.201 817.142 508.882C810.078 517.092 807.478 521.766 805.063 533.846C802.647 545.925 803.598 576.292 815.934 599.074C826.363 618.335 845.327 634.2 854.587 638.935C874.843 649.291 889.497 649.729 912.165 647.793C936.246 645.736 952.474 643.305 970.548 627.258C984.121 615.207 988.442 604.682 995.109 587.8C1001.08 572.682 1004.37 559.212 1003.97 547.133C1003.52 533.791 1002.17 525.449 995.109 514.116Z" fill="#040C00"/>
<path d="M1147.5 499L1049.5 484V505.5L1147.5 511V499Z" fill="#040C00"/>
<path d="M352 499L452 484V506L352 511V499Z" fill="#040C00"/>
<path d="M700 682C700 682 730.089 686.465 749.5 686.5C769.3 686.535 800 682 800 682V682C800 699.673 785.673 714 768 714H732C714.327 714 700 699.673 700 682V682Z" fill="black" fill-opacity="0.3"/>
<path fill-rule="evenodd" clip-rule="evenodd" d="M575.07 1061H575V1186C575 1282.65 653.35 1361 750 1361C846.65 1361 925 1282.65 925 1186V1061H924.93C922.283 1155.34 844.978 1231 750 1231C655.022 1231 577.717 1155.34 575.07 1061Z" fill="#802C2C"/>
<circle cx="750" cy="1270" r="20" fill="#3E0E0E"/>
<circle cx="750" cy="1322" r="20" fill="#3E0E0E"/>
<path fill-rule="evenodd" clip-rule="evenodd" d="M455.57 1571C394.809 1545.04 338.172 1511.29 286.915 1471H1213.09C1161.83 1511.29 1105.19 1545.04 1044.43 1571H455.57Z" fill="#802C2C"/>
</svg>
