<svg viewBox="0 0 1000 211" fill="none" xmlns="http://www.w3.org/2000/svg">
<path d="M0 41.5C0 41.5 129.552 -8.33885 214 1.50004C298.659 11.3635 328.405 85.1773 413.5 90C500.121 94.9093 538.279 24.6128 625 22C729.313 18.8572 775.159 101.521 879.5 103.5C926.844 104.398 1000 90 1000 90V211H0V41.5Z" fill="#6DC058" fill-opacity="0.1"/>
<path d="M0 41.4991C0 41.4991 66.0517 80.1603 150.5 89.9992C235.159 99.8626 332.905 36.6767 418 41.4995C504.621 46.4088 544.279 92.6123 631 89.9995C735.313 86.8566 767.659 60.021 872 62C919.344 62.898 1000 89.9991 1000 89.9991V210.999H0V41.4991Z" fill="#6DC058" fill-opacity="0.5"/>
</svg>
